<?xml version="1.0" encoding="UTF-8"?>
<svg version="1.1" xmlns="http://www.w3.org/2000/svg" width="227" height="138">
<path d="M0 0 C74.91 0 149.82 0 227 0 C227 45.54 227 91.08 227 138 C152.09 138 77.18 138 0 138 C0 92.46 0 46.92 0 0 Z " fill="#030301" transform="translate(0,0)"/>
<path d="M0 0 C43.8245614 0 43.8245614 0 52.6875 8.5625 C53.94921875 10.25390625 53.94921875 10.25390625 55 12 C55.37125 12.60328125 55.7425 13.2065625 56.125 13.828125 C58.84696552 20.58443228 57.52433622 29.50665781 54.90625 36.13671875 C52.0981085 41.91035451 48.3979229 44.00603579 43 47 C43.47308594 47.825 43.94617187 48.65 44.43359375 49.5 C46.22296259 52.62316218 48.00652505 55.74960962 49.78857422 58.87695312 C50.61155927 60.31925019 51.43616162 61.76062538 52.26220703 63.20117188 C53.51219821 65.38182391 54.75657532 67.56559855 56 69.75 C56.39759521 70.4409375 56.79519043 71.131875 57.20483398 71.84375 C60 76.77240949 60 76.77240949 60 79 C57.26658516 79.21698552 54.55037288 79.37463542 51.8125 79.5 C51.04357422 79.56703125 50.27464844 79.6340625 49.48242188 79.703125 C47.10427557 79.78477809 45.27513307 79.70944108 43 79 C40.62702945 76.68588598 39.38252535 73.9842793 38 71 C36.73237294 68.41049436 35.46386503 65.82154053 34.1875 63.23632812 C33.30611415 61.44076677 32.45476061 59.63017645 31.6328125 57.80664062 C30.20456073 54.7821317 30.20456073 54.7821317 27 51 C23.37 50.67 19.74 50.34 16 50 C16 59.57 16 69.14 16 79 C10.72 79 5.44 79 0 79 C0 52.93 0 26.86 0 0 Z " fill="#F8F800" transform="translate(19,27)"/>
<path d="M0 0 C0.6290625 0.33515625 1.258125 0.6703125 1.90625 1.015625 C4.17633947 2.36482912 5.75198076 3.43905928 6.8359375 5.890625 C7 8 7 8 5.78515625 9.921875 C5.21667969 10.52515625 4.64820313 11.1284375 4.0625 11.75 C3.49660156 12.36359375 2.93070313 12.9771875 2.34765625 13.609375 C1.90292969 14.06828125 1.45820313 14.5271875 1 15 C-1.89009473 14.58712932 -3.77393544 14.15619736 -6.19921875 12.48046875 C-9.82729266 10.56270026 -12.54042955 10.60083094 -16.625 10.625 C-17.93726563 10.61726563 -19.24953125 10.60953125 -20.6015625 10.6015625 C-23.91395495 10.72517299 -23.91395495 10.72517299 -25.9296875 12.30859375 C-27.80095757 15.26574682 -27.47407994 17.62218043 -27 21 C-22.17941461 25.99025402 -15.25984675 27.93152921 -8.92382812 30.38085938 C-1.51688109 33.39142495 4.02328513 37.18294018 8.96484375 43.51953125 C11.48333037 49.55439542 11.08656703 56.80847567 9.00390625 62.92578125 C4.84559776 70.68874242 -1.4415237 74.14284299 -9.375 77.375 C-22.51321379 79.64020927 -33.36255706 76.79889894 -44.453125 69.5625 C-46 68 -46 68 -46 64 C-44.46875 61.859375 -44.46875 61.859375 -42.5 59.75 C-41.8503125 59.04359375 -41.200625 58.3371875 -40.53125 57.609375 C-40.0259375 57.07828125 -39.520625 56.5471875 -39 56 C-36.99307401 56.99898325 -34.99097016 58.00467365 -33 59.03515625 C-32.34 59.37417969 -31.68 59.71320313 -31 60.0625 C-30.01 60.57490234 -30.01 60.57490234 -29 61.09765625 C-23.61607393 63.52673227 -17.80982553 63.75630865 -12 63 C-8.68169647 61.1009044 -8.68169647 61.1009044 -7 58 C-6.24984805 54.95691709 -6.24984805 54.95691709 -7 52 C-9.65372591 48.86960852 -12.15768337 47.23352702 -15.921875 45.66796875 C-16.86546875 45.26126953 -17.8090625 44.85457031 -18.78125 44.43554688 C-20.74295665 43.61085572 -22.70647541 42.79046041 -24.671875 41.97460938 C-32.23781463 38.70049012 -38.54277422 34.91620358 -43 27.8125 C-44.6255742 21.61499837 -45.46236037 15.44847392 -42.8984375 9.40234375 C-33.57141311 -5.53585842 -15.10267216 -8.22757513 0 0 Z " fill="#F9F900" transform="translate(200,30)"/>
<path d="M0 0 C15.84 0 31.68 0 48 0 C48 3.96 48 7.92 48 12 C37.11 12 26.22 12 15 12 C15 18.27 15 24.54 15 31 C24.24 31 33.48 31 43 31 C43 35.29 43 39.58 43 44 C34.09 44 25.18 44 16 44 C16 50.93 16 57.86 16 65 C26.89 65 37.78 65 49 65 C49 69.29 49 73.58 49 78 C32.83 78 16.66 78 0 78 C0 52.26 0 26.52 0 0 Z " fill="#FCFC00" transform="translate(92,28)"/>
<path d="M0 0 C4.021875 -0.0928125 4.021875 -0.0928125 8.125 -0.1875 C8.95789551 -0.21481201 9.79079102 -0.24212402 10.64892578 -0.27026367 C15.5213819 -0.32432457 18.76336416 0.34083495 23 3 C25.65822762 5.65822762 25.35980571 7.1060254 25.4375 10.8125 C25.36616596 15.06706578 25.30332776 16.56667463 22.8125 20.125 C17.59634175 23.60243883 13.38070677 24.27788528 7.1875 24.125 C4.815625 24.08375 2.44375 24.0425 0 24 C0 16.08 0 8.16 0 0 Z " fill="#030300" transform="translate(35,40)"/>
</svg>
